<svg width="25" height="26" viewBox="0 0 25 26" fill="none" xmlns="http://www.w3.org/2000/svg">
<path d="M17.7292 1.48791C18.9512 0.265993 20.9358 0.265993 22.1578 1.48791L24.0837 3.41528C25.3057 4.6368 25.3057 6.6194 24.0837 7.84142L21.7179 10.2072L15.3634 3.85373L17.7292 1.48791ZM20.6132 11.3119L9.21422 22.706C8.70586 23.2144 8.0753 23.5908 7.38608 23.7912L1.50428 25.5215C1.0927 25.6438 0.647398 25.5313 0.343849 25.1843C0.0402902 24.9252 -0.0732009 24.4804 0.0479253 24.0649L1.77801 18.1846C1.98135 17.4953 2.35431 16.8648 2.86316 16.3564L14.2587 4.95941L20.6132 11.3119Z" fill="#04454D"/>
</svg>
