<svg width="23" height="20" viewBox="0 0 23 20" fill="none" xmlns="http://www.w3.org/2000/svg">
<g clip-path="url(#clip0_25_58)">
<path d="M11.318 0C11.6778 0 12.0064 0.205078 12.1628 0.528125L14.8459 6.04688L20.8419 6.93359C21.1939 6.98438 21.4833 7.23047 21.5967 7.56641C21.7062 7.90625 21.6163 8.27734 21.366 8.52344L17.0167 12.8281L18.0453 18.9023C18.104 19.2539 17.9593 19.6133 17.6659 19.8203C17.3765 20.0273 16.958 20.0547 16.6764 19.8867L11.318 17.0273L5.9283 19.8867C5.64669 20.0547 5.26339 20.0273 4.97005 19.8203C4.68062 19.6133 4.5359 19.2539 4.55937 18.9023L5.61931 12.8281L1.27432 8.52344C1.02165 8.27734 0.932086 7.90625 1.04317 7.56641C1.15385 7.23047 1.44602 6.98438 1.79764 6.93359L7.79005 6.04688L10.4732 0.528125C10.6335 0.205039 10.9582 0 11.318 0ZM11.318 3.08398L9.26459 7.3125C9.1277 7.58984 8.86173 7.78516 8.55665 7.83203L3.92888 8.51172L7.28941 11.8359C7.50453 12.0508 7.60231 12.3594 7.55147 12.6602L6.7614 17.332L10.876 15.1367C11.1537 14.9883 11.4862 14.9883 11.76 15.1367L15.8746 17.332L15.0845 12.6602C15.0337 12.3594 15.1354 12.0508 15.3505 11.8359L18.7102 8.51172L14.0832 7.83203C13.7742 7.78516 13.5083 7.58984 13.3753 7.3125L11.318 3.08398Z" fill="#416284"/>
</g>
<defs>
<clipPath id="clip0_25_58">
<rect width="22.5287" height="20" fill="white" transform="translate(0.0574951)"/>
</clipPath>
</defs>
</svg>
