<svg width="24" height="20" viewBox="0 0 24 20" fill="none" xmlns="http://www.w3.org/2000/svg">
<g clip-path="url(#clip0_25_56)">
<path d="M15.8062 5.8711L21.4267 6.69922C21.8921 6.76563 22.2832 7.09375 22.4319 7.54297C22.5805 7.9961 22.4592 8.48828 22.1229 8.82422L18.0474 12.8164L19.0095 18.543C19.0877 19.0117 18.8961 19.4883 18.505 19.7656C18.1178 20.043 17.6054 20.0781 17.1869 19.8555L12.1649 17.1797L7.14674 19.8555C6.72432 20.0781 6.21195 20.043 5.82474 19.7656C5.43753 19.4883 5.24196 19.0117 5.3241 18.543L6.28626 12.8164L2.20997 8.82422C1.87321 8.48828 1.75353 7.9961 1.90138 7.54297C2.04883 7.09375 2.43878 6.76563 2.90774 6.69922L8.52349 5.8711L11.0423 0.701955C11.2496 0.271642 11.6877 -0.00152588 12.1649 -0.00152588C12.6459 -0.00152588 13.084 0.271642 13.2913 0.701955L15.8062 5.8711Z" fill="#416284"/>
</g>
<defs>
<clipPath id="clip0_25_56">
<rect width="22.5287" height="20" fill="white" transform="translate(0.896606)"/>
</clipPath>
</defs>
</svg>
