<svg width="25" height="29" viewBox="0 0 25 29" fill="none" xmlns="http://www.w3.org/2000/svg">
<g clip-path="url(#clip0_80_2)">
<path d="M7.54464 0.987165C7.84598 0.382143 8.4654 0 9.14063 0H15.8594C16.5346 0 17.154 0.382143 17.4554 0.987165L17.8571 1.78571H23.2143C24.202 1.78571 25 2.58538 25 3.57143C25 4.55748 24.202 5.35714 23.2143 5.35714H1.78571C0.799665 5.35714 0 4.55748 0 3.57143C0 2.58538 0.799665 1.78571 1.78571 1.78571H7.14286L7.54464 0.987165ZM1.73549 7.14286H23.2143V25C23.2143 26.9699 21.6127 28.5714 19.6429 28.5714H5.30692C3.38449 28.5714 1.73549 26.9699 1.73549 25V7.14286ZM6.19978 11.6071V24.1071C6.19978 24.5982 6.65179 25 7.09263 25C7.63393 25 7.98549 24.5982 7.98549 24.1071V11.6071C7.98549 11.1161 7.63393 10.7143 7.09263 10.7143C6.65179 10.7143 6.19978 11.1161 6.19978 11.6071ZM11.5569 11.6071V24.1071C11.5569 24.5982 12.0089 25 12.4498 25C12.9911 25 13.3929 24.5982 13.3929 24.1071V11.6071C13.3929 11.1161 12.9911 10.7143 12.4498 10.7143C12.0089 10.7143 11.5569 11.1161 11.5569 11.6071ZM16.9643 11.6071V24.1071C16.9643 24.5982 17.3661 25 17.8571 25C18.3482 25 18.75 24.5982 18.75 24.1071V11.6071C18.75 11.1161 18.3482 10.7143 17.8571 10.7143C17.3661 10.7143 16.9643 11.1161 16.9643 11.6071Z" fill="#04454D"/>
</g>
<defs>
<clipPath id="clip0_80_2">
<rect width="25" height="28.5714" fill="white"/>
</clipPath>
</defs>
</svg>
